<svg xmlns="http://www.w3.org/2000/svg" viewBox="0 0 228.46 43.28"><defs><style>.cls-1{fill:#f48420;}.cls-2{fill:#31378f;}.cls-3{fill:#6881bd;}</style></defs><g id="Layer_2" data-name="Layer 2"><g id="Layer_1-2" data-name="Layer 1"><path class="cls-1" d="M75.22,31.44a34,34,0,0,1-3.34,2c-7.6,3.86-16.55,6.57-34.15,6.09C14.13,38.85,0,32,0,32s16.94,8.92,33,10.57,33.9-.43,44.35-4.11c6.12-2.16,10.31-4.57,13.06-7Z"></path><path class="cls-1" d="M80.13,14.21h11.3l-.12-.13C78.52.57,39.75.1,39.75.1S67.8,2.2,79.81,13.88C79.93,14,80,14.1,80.13,14.21Z"></path><path class="cls-2" d="M32.54,5c0,2.61-2.2,4.68-4.21,4.65-2.74,0-4.3-1.26-4.54-3.86C23.49,2.63,25.88,0,28.62,0S32.59,2.42,32.54,5Z"></path><path class="cls-2" d="M9.17,18.32s9.93-7.74,12.53-7.93,5.89.93,8.14.73,10-11,10-11-4.74,14.68-4.91,17.63,0,5,.72,5.91S48.48,39.2,48.48,39.2s-11.3-8.94-15.9-9.14-14,13.22-14,13.22S25,23.67,24.76,18C24.53,12.82,9.17,18.32,9.17,18.32Z"></path><path class="cls-2" d="M44.26,28.6l1.33-2.86a9.46,9.46,0,0,0,4.78,1.33c1.84,0,2.53-.49,2.53-1.25,0-2.25-8.3.05-8.3-5.45,0-2.61,2.35-4.45,6.36-4.45a11.38,11.38,0,0,1,5.29,1.2L54.92,20a8,8,0,0,0-4-1c-1.79,0-2.55.56-2.55,1.28,0,2.35,8.3.07,8.3,5.49,0,2.56-2.37,4.38-6.49,4.38A11.75,11.75,0,0,1,44.26,28.6Z"></path><path class="cls-2" d="M68,29.22a5.74,5.74,0,0,1-3.24.87c-3.25,0-5.14-1.67-5.14-4.94V19.5H57.53V16.43h2.12V13.09h4v3.34h3.42V19.5H63.64v5.6a1.61,1.61,0,0,0,1.71,1.82A2.63,2.63,0,0,0,67,26.4Z"></path><path class="cls-2" d="M84.14,16.13V29.88H80.35V28.25a5.55,5.55,0,0,1-4.27,1.84c-3.45,0-5.88-1.95-5.88-6.19V16.13h4v7.18c0,2.3,1,3.32,2.79,3.32s3.17-1.17,3.17-3.7v-6.8Z"></path><path class="cls-2" d="M101.85,10.91v19H98V28.3a5.3,5.3,0,0,1-4.3,1.79A6.69,6.69,0,0,1,86.87,23a6.68,6.68,0,0,1,6.87-7.08,5.31,5.31,0,0,1,4.12,1.66V10.91ZM97.94,23a3.53,3.53,0,1,0-7,0,3.53,3.53,0,1,0,7,0Z"></path><path class="cls-2" d="M105,12a2.28,2.28,0,0,1,2.48-2.23A2.24,2.24,0,0,1,110,11.91a2.49,2.49,0,0,1-5,.08Zm.49,4.14h4V29.88h-4Z"></path><path class="cls-2" d="M112.2,23c0-4.14,3.19-7.08,7.56-7.08s7.54,2.94,7.54,7.08-3.17,7.09-7.54,7.09S112.2,27.15,112.2,23Zm11.06,0a3.53,3.53,0,1,0-7,0,3.53,3.53,0,1,0,7,0Z"></path><path class="cls-3" d="M145.24,10.91v19H144V26.74A5.92,5.92,0,0,1,138.52,30a6.46,6.46,0,0,1-6.59-6.77,6.45,6.45,0,0,1,6.59-6.78,6,6,0,0,1,5.45,3.2V10.91ZM144,23.21a5.38,5.38,0,1,0-10.74,0,5.38,5.38,0,1,0,10.74,0Z"></path><path class="cls-3" d="M150.23,12.27a1.05,1.05,0,0,1,1-1,1,1,0,1,1-1,1Zm.4,4.27h1.28V29.88h-1.28Z"></path><path class="cls-3" d="M163.62,16.43v1.26l-.31,0c-3,0-4.73,2-4.73,5.27v7H157.3V16.54h1.23v2.91C159.35,17.51,161.11,16.43,163.62,16.43Z"></path><path class="cls-3" d="M178.29,23.52H166.81A5.72,5.72,0,0,0,176.73,27l.74.84a6.37,6.37,0,0,1-5,2.17,6.55,6.55,0,0,1-6.88-6.77c0-4,2.74-6.78,6.39-6.78s6.37,2.77,6.37,6.73C178.32,23.26,178.29,23.39,178.29,23.52Zm-11.45-1h10.22a5.11,5.11,0,0,0-10.22,0Z"></path><path class="cls-3" d="M180.82,23.21a6.5,6.5,0,0,1,6.75-6.78,5.85,5.85,0,0,1,5.06,2.46l-.95.69a4.85,4.85,0,0,0-4.11-2,5.3,5.3,0,0,0-5.45,5.63,5.3,5.3,0,0,0,5.45,5.62,4.87,4.87,0,0,0,4.11-2l.95.69A5.91,5.91,0,0,1,187.57,30,6.51,6.51,0,0,1,180.82,23.21Z"></path><path class="cls-3" d="M203.23,29a4,4,0,0,1-2.73.94,3.31,3.31,0,0,1-3.63-3.63V17.64h-2.46v-1.1h2.46V13.62h1.28v2.92h4.24v1.1h-4.24v8.59c0,1.71.84,2.65,2.48,2.65a3.05,3.05,0,0,0,2.07-.74Z"></path><path class="cls-3" d="M204.84,23.21a6.68,6.68,0,1,1,13.35,0,6.68,6.68,0,1,1-13.35,0Zm12,0a5.37,5.37,0,1,0-10.73,0,5.37,5.37,0,1,0,10.73,0Z"></path><path class="cls-3" d="M228.46,16.43v1.26l-.31,0c-3,0-4.73,2-4.73,5.27v7h-1.28V16.54h1.23v2.91C224.19,17.51,226,16.43,228.46,16.43Z"></path></g></g></svg>